G04 #@! TF.GenerationSoftware,KiCad,Pcbnew,(6.0.6)*
G04 #@! TF.CreationDate,2022-09-21T14:47:18+10:00*
G04 #@! TF.ProjectId,freshboard,66726573-6862-46f6-9172-642e6b696361,rev?*
G04 #@! TF.SameCoordinates,Original*
G04 #@! TF.FileFunction,Legend,Top*
G04 #@! TF.FilePolarity,Positive*
%FSLAX46Y46*%
G04 Gerber Fmt 4.6, Leading zero omitted, Abs format (unit mm)*
G04 Created by KiCad (PCBNEW (6.0.6)) date 2022-09-21 14:47:18*
%MOMM*%
%LPD*%
G01*
G04 APERTURE LIST*
G04 Aperture macros list*
%AMRoundRect*
0 Rectangle with rounded corners*
0 $1 Rounding radius*
0 $2 $3 $4 $5 $6 $7 $8 $9 X,Y pos of 4 corners*
0 Add a 4 corners polygon primitive as box body*
4,1,4,$2,$3,$4,$5,$6,$7,$8,$9,$2,$3,0*
0 Add four circle primitives for the rounded corners*
1,1,$1+$1,$2,$3*
1,1,$1+$1,$4,$5*
1,1,$1+$1,$6,$7*
1,1,$1+$1,$8,$9*
0 Add four rect primitives between the rounded corners*
20,1,$1+$1,$2,$3,$4,$5,0*
20,1,$1+$1,$4,$5,$6,$7,0*
20,1,$1+$1,$6,$7,$8,$9,0*
20,1,$1+$1,$8,$9,$2,$3,0*%
G04 Aperture macros list end*
%ADD10C,0.150000*%
%ADD11C,0.120000*%
%ADD12R,1.200000X0.900000*%
%ADD13C,3.987800*%
%ADD14C,1.750000*%
%ADD15C,3.300000*%
%ADD16RoundRect,0.250000X-1.025000X-1.000000X1.025000X-1.000000X1.025000X1.000000X-1.025000X1.000000X0*%
%ADD17R,1.600200X1.574800*%
%ADD18C,1.600000*%
G04 APERTURE END LIST*
D10*
G04 #@! TO.C,D2*
X114022380Y-99798095D02*
X113022380Y-99798095D01*
X113022380Y-99560000D01*
X113070000Y-99417142D01*
X113165238Y-99321904D01*
X113260476Y-99274285D01*
X113450952Y-99226666D01*
X113593809Y-99226666D01*
X113784285Y-99274285D01*
X113879523Y-99321904D01*
X113974761Y-99417142D01*
X114022380Y-99560000D01*
X114022380Y-99798095D01*
X113117619Y-98845714D02*
X113070000Y-98798095D01*
X113022380Y-98702857D01*
X113022380Y-98464761D01*
X113070000Y-98369523D01*
X113117619Y-98321904D01*
X113212857Y-98274285D01*
X113308095Y-98274285D01*
X113450952Y-98321904D01*
X114022380Y-98893333D01*
X114022380Y-98274285D01*
G04 #@! TO.C,SW6*
X192536666Y-92634761D02*
X192679523Y-92682380D01*
X192917619Y-92682380D01*
X193012857Y-92634761D01*
X193060476Y-92587142D01*
X193108095Y-92491904D01*
X193108095Y-92396666D01*
X193060476Y-92301428D01*
X193012857Y-92253809D01*
X192917619Y-92206190D01*
X192727142Y-92158571D01*
X192631904Y-92110952D01*
X192584285Y-92063333D01*
X192536666Y-91968095D01*
X192536666Y-91872857D01*
X192584285Y-91777619D01*
X192631904Y-91730000D01*
X192727142Y-91682380D01*
X192965238Y-91682380D01*
X193108095Y-91730000D01*
X193441428Y-91682380D02*
X193679523Y-92682380D01*
X193870000Y-91968095D01*
X194060476Y-92682380D01*
X194298571Y-91682380D01*
X195108095Y-91682380D02*
X194917619Y-91682380D01*
X194822380Y-91730000D01*
X194774761Y-91777619D01*
X194679523Y-91920476D01*
X194631904Y-92110952D01*
X194631904Y-92491904D01*
X194679523Y-92587142D01*
X194727142Y-92634761D01*
X194822380Y-92682380D01*
X195012857Y-92682380D01*
X195108095Y-92634761D01*
X195155714Y-92587142D01*
X195203333Y-92491904D01*
X195203333Y-92253809D01*
X195155714Y-92158571D01*
X195108095Y-92110952D01*
X195012857Y-92063333D01*
X194822380Y-92063333D01*
X194727142Y-92110952D01*
X194679523Y-92158571D01*
X194631904Y-92253809D01*
G04 #@! TO.C,SW5*
X173486666Y-92634761D02*
X173629523Y-92682380D01*
X173867619Y-92682380D01*
X173962857Y-92634761D01*
X174010476Y-92587142D01*
X174058095Y-92491904D01*
X174058095Y-92396666D01*
X174010476Y-92301428D01*
X173962857Y-92253809D01*
X173867619Y-92206190D01*
X173677142Y-92158571D01*
X173581904Y-92110952D01*
X173534285Y-92063333D01*
X173486666Y-91968095D01*
X173486666Y-91872857D01*
X173534285Y-91777619D01*
X173581904Y-91730000D01*
X173677142Y-91682380D01*
X173915238Y-91682380D01*
X174058095Y-91730000D01*
X174391428Y-91682380D02*
X174629523Y-92682380D01*
X174820000Y-91968095D01*
X175010476Y-92682380D01*
X175248571Y-91682380D01*
X176105714Y-91682380D02*
X175629523Y-91682380D01*
X175581904Y-92158571D01*
X175629523Y-92110952D01*
X175724761Y-92063333D01*
X175962857Y-92063333D01*
X176058095Y-92110952D01*
X176105714Y-92158571D01*
X176153333Y-92253809D01*
X176153333Y-92491904D01*
X176105714Y-92587142D01*
X176058095Y-92634761D01*
X175962857Y-92682380D01*
X175724761Y-92682380D01*
X175629523Y-92634761D01*
X175581904Y-92587142D01*
G04 #@! TO.C,D3*
X133072380Y-99798095D02*
X132072380Y-99798095D01*
X132072380Y-99560000D01*
X132120000Y-99417142D01*
X132215238Y-99321904D01*
X132310476Y-99274285D01*
X132500952Y-99226666D01*
X132643809Y-99226666D01*
X132834285Y-99274285D01*
X132929523Y-99321904D01*
X133024761Y-99417142D01*
X133072380Y-99560000D01*
X133072380Y-99798095D01*
X132072380Y-98893333D02*
X132072380Y-98274285D01*
X132453333Y-98607619D01*
X132453333Y-98464761D01*
X132500952Y-98369523D01*
X132548571Y-98321904D01*
X132643809Y-98274285D01*
X132881904Y-98274285D01*
X132977142Y-98321904D01*
X133024761Y-98369523D01*
X133072380Y-98464761D01*
X133072380Y-98750476D01*
X133024761Y-98845714D01*
X132977142Y-98893333D01*
G04 #@! TO.C,D6*
X190222380Y-99798095D02*
X189222380Y-99798095D01*
X189222380Y-99560000D01*
X189270000Y-99417142D01*
X189365238Y-99321904D01*
X189460476Y-99274285D01*
X189650952Y-99226666D01*
X189793809Y-99226666D01*
X189984285Y-99274285D01*
X190079523Y-99321904D01*
X190174761Y-99417142D01*
X190222380Y-99560000D01*
X190222380Y-99798095D01*
X189222380Y-98369523D02*
X189222380Y-98560000D01*
X189270000Y-98655238D01*
X189317619Y-98702857D01*
X189460476Y-98798095D01*
X189650952Y-98845714D01*
X190031904Y-98845714D01*
X190127142Y-98798095D01*
X190174761Y-98750476D01*
X190222380Y-98655238D01*
X190222380Y-98464761D01*
X190174761Y-98369523D01*
X190127142Y-98321904D01*
X190031904Y-98274285D01*
X189793809Y-98274285D01*
X189698571Y-98321904D01*
X189650952Y-98369523D01*
X189603333Y-98464761D01*
X189603333Y-98655238D01*
X189650952Y-98750476D01*
X189698571Y-98798095D01*
X189793809Y-98845714D01*
G04 #@! TO.C,D5*
X171172380Y-99798095D02*
X170172380Y-99798095D01*
X170172380Y-99560000D01*
X170220000Y-99417142D01*
X170315238Y-99321904D01*
X170410476Y-99274285D01*
X170600952Y-99226666D01*
X170743809Y-99226666D01*
X170934285Y-99274285D01*
X171029523Y-99321904D01*
X171124761Y-99417142D01*
X171172380Y-99560000D01*
X171172380Y-99798095D01*
X170172380Y-98321904D02*
X170172380Y-98798095D01*
X170648571Y-98845714D01*
X170600952Y-98798095D01*
X170553333Y-98702857D01*
X170553333Y-98464761D01*
X170600952Y-98369523D01*
X170648571Y-98321904D01*
X170743809Y-98274285D01*
X170981904Y-98274285D01*
X171077142Y-98321904D01*
X171124761Y-98369523D01*
X171172380Y-98464761D01*
X171172380Y-98702857D01*
X171124761Y-98798095D01*
X171077142Y-98845714D01*
G04 #@! TO.C,D4*
X152122380Y-99798095D02*
X151122380Y-99798095D01*
X151122380Y-99560000D01*
X151170000Y-99417142D01*
X151265238Y-99321904D01*
X151360476Y-99274285D01*
X151550952Y-99226666D01*
X151693809Y-99226666D01*
X151884285Y-99274285D01*
X151979523Y-99321904D01*
X152074761Y-99417142D01*
X152122380Y-99560000D01*
X152122380Y-99798095D01*
X151455714Y-98369523D02*
X152122380Y-98369523D01*
X151074761Y-98607619D02*
X151789047Y-98845714D01*
X151789047Y-98226666D01*
G04 #@! TO.C,SW1*
X97286666Y-92634761D02*
X97429523Y-92682380D01*
X97667619Y-92682380D01*
X97762857Y-92634761D01*
X97810476Y-92587142D01*
X97858095Y-92491904D01*
X97858095Y-92396666D01*
X97810476Y-92301428D01*
X97762857Y-92253809D01*
X97667619Y-92206190D01*
X97477142Y-92158571D01*
X97381904Y-92110952D01*
X97334285Y-92063333D01*
X97286666Y-91968095D01*
X97286666Y-91872857D01*
X97334285Y-91777619D01*
X97381904Y-91730000D01*
X97477142Y-91682380D01*
X97715238Y-91682380D01*
X97858095Y-91730000D01*
X98191428Y-91682380D02*
X98429523Y-92682380D01*
X98620000Y-91968095D01*
X98810476Y-92682380D01*
X99048571Y-91682380D01*
X99953333Y-92682380D02*
X99381904Y-92682380D01*
X99667619Y-92682380D02*
X99667619Y-91682380D01*
X99572380Y-91825238D01*
X99477142Y-91920476D01*
X99381904Y-91968095D01*
G04 #@! TO.C,RZ1*
X76442380Y-94622857D02*
X75966190Y-94956190D01*
X76442380Y-95194285D02*
X75442380Y-95194285D01*
X75442380Y-94813333D01*
X75490000Y-94718095D01*
X75537619Y-94670476D01*
X75632857Y-94622857D01*
X75775714Y-94622857D01*
X75870952Y-94670476D01*
X75918571Y-94718095D01*
X75966190Y-94813333D01*
X75966190Y-95194285D01*
X75442380Y-94289523D02*
X75442380Y-93622857D01*
X76442380Y-94289523D01*
X76442380Y-93622857D01*
X76442380Y-92718095D02*
X76442380Y-93289523D01*
X76442380Y-93003809D02*
X75442380Y-93003809D01*
X75585238Y-93099047D01*
X75680476Y-93194285D01*
X75728095Y-93289523D01*
G04 #@! TO.C,SW4*
X154436666Y-92634761D02*
X154579523Y-92682380D01*
X154817619Y-92682380D01*
X154912857Y-92634761D01*
X154960476Y-92587142D01*
X155008095Y-92491904D01*
X155008095Y-92396666D01*
X154960476Y-92301428D01*
X154912857Y-92253809D01*
X154817619Y-92206190D01*
X154627142Y-92158571D01*
X154531904Y-92110952D01*
X154484285Y-92063333D01*
X154436666Y-91968095D01*
X154436666Y-91872857D01*
X154484285Y-91777619D01*
X154531904Y-91730000D01*
X154627142Y-91682380D01*
X154865238Y-91682380D01*
X155008095Y-91730000D01*
X155341428Y-91682380D02*
X155579523Y-92682380D01*
X155770000Y-91968095D01*
X155960476Y-92682380D01*
X156198571Y-91682380D01*
X157008095Y-92015714D02*
X157008095Y-92682380D01*
X156770000Y-91634761D02*
X156531904Y-92349047D01*
X157150952Y-92349047D01*
G04 #@! TO.C,SW2*
X116336666Y-92634761D02*
X116479523Y-92682380D01*
X116717619Y-92682380D01*
X116812857Y-92634761D01*
X116860476Y-92587142D01*
X116908095Y-92491904D01*
X116908095Y-92396666D01*
X116860476Y-92301428D01*
X116812857Y-92253809D01*
X116717619Y-92206190D01*
X116527142Y-92158571D01*
X116431904Y-92110952D01*
X116384285Y-92063333D01*
X116336666Y-91968095D01*
X116336666Y-91872857D01*
X116384285Y-91777619D01*
X116431904Y-91730000D01*
X116527142Y-91682380D01*
X116765238Y-91682380D01*
X116908095Y-91730000D01*
X117241428Y-91682380D02*
X117479523Y-92682380D01*
X117670000Y-91968095D01*
X117860476Y-92682380D01*
X118098571Y-91682380D01*
X118431904Y-91777619D02*
X118479523Y-91730000D01*
X118574761Y-91682380D01*
X118812857Y-91682380D01*
X118908095Y-91730000D01*
X118955714Y-91777619D01*
X119003333Y-91872857D01*
X119003333Y-91968095D01*
X118955714Y-92110952D01*
X118384285Y-92682380D01*
X119003333Y-92682380D01*
G04 #@! TO.C,SW3*
X135386666Y-92634761D02*
X135529523Y-92682380D01*
X135767619Y-92682380D01*
X135862857Y-92634761D01*
X135910476Y-92587142D01*
X135958095Y-92491904D01*
X135958095Y-92396666D01*
X135910476Y-92301428D01*
X135862857Y-92253809D01*
X135767619Y-92206190D01*
X135577142Y-92158571D01*
X135481904Y-92110952D01*
X135434285Y-92063333D01*
X135386666Y-91968095D01*
X135386666Y-91872857D01*
X135434285Y-91777619D01*
X135481904Y-91730000D01*
X135577142Y-91682380D01*
X135815238Y-91682380D01*
X135958095Y-91730000D01*
X136291428Y-91682380D02*
X136529523Y-92682380D01*
X136720000Y-91968095D01*
X136910476Y-92682380D01*
X137148571Y-91682380D01*
X137434285Y-91682380D02*
X138053333Y-91682380D01*
X137720000Y-92063333D01*
X137862857Y-92063333D01*
X137958095Y-92110952D01*
X138005714Y-92158571D01*
X138053333Y-92253809D01*
X138053333Y-92491904D01*
X138005714Y-92587142D01*
X137958095Y-92634761D01*
X137862857Y-92682380D01*
X137577142Y-92682380D01*
X137481904Y-92634761D01*
X137434285Y-92587142D01*
G04 #@! TO.C,D1*
X94972380Y-99798095D02*
X93972380Y-99798095D01*
X93972380Y-99560000D01*
X94020000Y-99417142D01*
X94115238Y-99321904D01*
X94210476Y-99274285D01*
X94400952Y-99226666D01*
X94543809Y-99226666D01*
X94734285Y-99274285D01*
X94829523Y-99321904D01*
X94924761Y-99417142D01*
X94972380Y-99560000D01*
X94972380Y-99798095D01*
X94972380Y-98274285D02*
X94972380Y-98845714D01*
X94972380Y-98560000D02*
X93972380Y-98560000D01*
X94115238Y-98655238D01*
X94210476Y-98750476D01*
X94258095Y-98845714D01*
D11*
G04 #@! TO.C,D2*
X114570000Y-101310000D02*
X114570000Y-97410000D01*
X114570000Y-101310000D02*
X116570000Y-101310000D01*
X116570000Y-101310000D02*
X116570000Y-97410000D01*
D10*
G04 #@! TO.C,SW6*
X194805176Y-87229780D02*
X193255176Y-87229780D01*
X204205176Y-90029780D02*
X204205176Y-89229780D01*
X193755176Y-91279780D02*
X198320000Y-91279780D01*
X193255176Y-87229780D02*
X193255176Y-87459780D01*
X193255176Y-90309780D02*
X193255176Y-90779780D01*
X202205176Y-87229780D02*
X196305176Y-87229780D01*
X204205176Y-92879780D02*
X204205176Y-93119780D01*
X200614322Y-93119780D02*
G75*
G03*
X198320000Y-91279780I-2293456J-509332D01*
G01*
X193255176Y-90779780D02*
G75*
G03*
X193755176Y-91279780I500001J1D01*
G01*
X204205170Y-89229780D02*
G75*
G03*
X202205176Y-87229780I-1999990J10D01*
G01*
G04 #@! TO.C,SW5*
X183155176Y-87229780D02*
X177255176Y-87229780D01*
X174705176Y-91279780D02*
X179270000Y-91279780D01*
X174205176Y-90309780D02*
X174205176Y-90779780D01*
X185155176Y-92879780D02*
X185155176Y-93119780D01*
X185155176Y-90029780D02*
X185155176Y-89229780D01*
X174205176Y-87229780D02*
X174205176Y-87459780D01*
X175755176Y-87229780D02*
X174205176Y-87229780D01*
X181564322Y-93119780D02*
G75*
G03*
X179270000Y-91279780I-2293456J-509332D01*
G01*
X185155170Y-89229780D02*
G75*
G03*
X183155176Y-87229780I-1999990J10D01*
G01*
X174205176Y-90779780D02*
G75*
G03*
X174705176Y-91279780I500001J1D01*
G01*
D11*
G04 #@! TO.C,D3*
X133620000Y-101310000D02*
X135620000Y-101310000D01*
X135620000Y-101310000D02*
X135620000Y-97410000D01*
X133620000Y-101310000D02*
X133620000Y-97410000D01*
G04 #@! TO.C,D6*
X192770000Y-101310000D02*
X192770000Y-97410000D01*
X190770000Y-101310000D02*
X190770000Y-97410000D01*
X190770000Y-101310000D02*
X192770000Y-101310000D01*
G04 #@! TO.C,D5*
X171720000Y-101310000D02*
X171720000Y-97410000D01*
X173720000Y-101310000D02*
X173720000Y-97410000D01*
X171720000Y-101310000D02*
X173720000Y-101310000D01*
G04 #@! TO.C,D4*
X154670000Y-101310000D02*
X154670000Y-97410000D01*
X152670000Y-101310000D02*
X152670000Y-97410000D01*
X152670000Y-101310000D02*
X154670000Y-101310000D01*
D10*
G04 #@! TO.C,SW1*
X99555176Y-87229780D02*
X98005176Y-87229780D01*
X106955176Y-87229780D02*
X101055176Y-87229780D01*
X98005176Y-87229780D02*
X98005176Y-87459780D01*
X98005176Y-90309780D02*
X98005176Y-90779780D01*
X108955176Y-92879780D02*
X108955176Y-93119780D01*
X98505176Y-91279780D02*
X103070000Y-91279780D01*
X108955176Y-90029780D02*
X108955176Y-89229780D01*
X98005176Y-90779780D02*
G75*
G03*
X98505176Y-91279780I500001J1D01*
G01*
X108955170Y-89229780D02*
G75*
G03*
X106955176Y-87229780I-1999990J10D01*
G01*
X105364322Y-93119780D02*
G75*
G03*
X103070000Y-91279780I-2293456J-509332D01*
G01*
D11*
G04 #@! TO.C,RZ1*
X90490000Y-101998000D02*
X66990000Y-101998000D01*
X90490000Y-102980000D02*
X90490000Y-84980000D01*
X66990000Y-102980000D02*
X90490000Y-102980000D01*
X66990000Y-84980000D02*
X66990000Y-102980000D01*
X90490000Y-84980000D02*
X66990000Y-84980000D01*
D10*
G04 #@! TO.C,SW4*
X156705176Y-87229780D02*
X155155176Y-87229780D01*
X155655176Y-91279780D02*
X160220000Y-91279780D01*
X155155176Y-87229780D02*
X155155176Y-87459780D01*
X166105176Y-92879780D02*
X166105176Y-93119780D01*
X164105176Y-87229780D02*
X158205176Y-87229780D01*
X166105176Y-90029780D02*
X166105176Y-89229780D01*
X155155176Y-90309780D02*
X155155176Y-90779780D01*
X166105170Y-89229780D02*
G75*
G03*
X164105176Y-87229780I-1999990J10D01*
G01*
X162514322Y-93119780D02*
G75*
G03*
X160220000Y-91279780I-2293456J-509332D01*
G01*
X155155176Y-90779780D02*
G75*
G03*
X155655176Y-91279780I500001J1D01*
G01*
G04 #@! TO.C,SW2*
X117055176Y-90309780D02*
X117055176Y-90779780D01*
X117555176Y-91279780D02*
X122120000Y-91279780D01*
X128005176Y-90029780D02*
X128005176Y-89229780D01*
X126005176Y-87229780D02*
X120105176Y-87229780D01*
X117055176Y-87229780D02*
X117055176Y-87459780D01*
X118605176Y-87229780D02*
X117055176Y-87229780D01*
X128005176Y-92879780D02*
X128005176Y-93119780D01*
X128005170Y-89229780D02*
G75*
G03*
X126005176Y-87229780I-1999990J10D01*
G01*
X124414322Y-93119780D02*
G75*
G03*
X122120000Y-91279780I-2293456J-509332D01*
G01*
X117055176Y-90779780D02*
G75*
G03*
X117555176Y-91279780I500001J1D01*
G01*
G04 #@! TO.C,SW3*
X136605176Y-91279780D02*
X141170000Y-91279780D01*
X136105176Y-87229780D02*
X136105176Y-87459780D01*
X137655176Y-87229780D02*
X136105176Y-87229780D01*
X147055176Y-90029780D02*
X147055176Y-89229780D01*
X136105176Y-90309780D02*
X136105176Y-90779780D01*
X145055176Y-87229780D02*
X139155176Y-87229780D01*
X147055176Y-92879780D02*
X147055176Y-93119780D01*
X147055170Y-89229780D02*
G75*
G03*
X145055176Y-87229780I-1999990J10D01*
G01*
X136105176Y-90779780D02*
G75*
G03*
X136605176Y-91279780I500001J1D01*
G01*
X143464322Y-93119780D02*
G75*
G03*
X141170000Y-91279780I-2293456J-509332D01*
G01*
D11*
G04 #@! TO.C,D1*
X97520000Y-101310000D02*
X97520000Y-97410000D01*
X95520000Y-101310000D02*
X95520000Y-97410000D01*
X95520000Y-101310000D02*
X97520000Y-101310000D01*
G04 #@! TD*
%LPC*%
D12*
G04 #@! TO.C,D2*
X115570000Y-100710000D03*
X115570000Y-97410000D03*
G04 #@! TD*
D13*
G04 #@! TO.C,SW6*
X198120000Y-93980000D03*
D14*
X203200000Y-93980000D03*
X193040000Y-93980000D03*
D15*
X201930000Y-91440000D03*
D16*
X205480000Y-91440000D03*
X192030000Y-88900000D03*
D15*
X195580000Y-88900000D03*
G04 #@! TD*
D13*
G04 #@! TO.C,SW5*
X179070000Y-93980000D03*
D14*
X184150000Y-93980000D03*
X173990000Y-93980000D03*
D16*
X186430000Y-91440000D03*
D15*
X182880000Y-91440000D03*
X176530000Y-88900000D03*
D16*
X172980000Y-88900000D03*
G04 #@! TD*
D12*
G04 #@! TO.C,D3*
X134620000Y-100710000D03*
X134620000Y-97410000D03*
G04 #@! TD*
G04 #@! TO.C,D6*
X191770000Y-100710000D03*
X191770000Y-97410000D03*
G04 #@! TD*
G04 #@! TO.C,D5*
X172720000Y-100710000D03*
X172720000Y-97410000D03*
G04 #@! TD*
G04 #@! TO.C,D4*
X153670000Y-100710000D03*
X153670000Y-97410000D03*
G04 #@! TD*
D14*
G04 #@! TO.C,SW1*
X107950000Y-93980000D03*
D13*
X102870000Y-93980000D03*
D14*
X97790000Y-93980000D03*
D16*
X110230000Y-91440000D03*
D15*
X106680000Y-91440000D03*
D16*
X96780000Y-88900000D03*
D15*
X100330000Y-88900000D03*
G04 #@! TD*
D17*
G04 #@! TO.C,RZ1*
X86362500Y-102472000D03*
X68582500Y-102446600D03*
X71122500Y-102446600D03*
X83822500Y-102446600D03*
X89816900Y-88908400D03*
X89842300Y-99068400D03*
X86362500Y-85454000D03*
X81282500Y-102446600D03*
X78729800Y-85377800D03*
X68582500Y-85428600D03*
X89816900Y-91448400D03*
X88902500Y-102472000D03*
X88902500Y-85454000D03*
X83822500Y-85428600D03*
X81282500Y-85428600D03*
X71122500Y-85428600D03*
X73662500Y-102472000D03*
X89816900Y-96528400D03*
X89842300Y-93988400D03*
X73662500Y-85454000D03*
X76202500Y-102472000D03*
X76202500Y-85454000D03*
X78729800Y-102395800D03*
D18*
X68580000Y-86360000D03*
X71120000Y-86360000D03*
X73660000Y-86360000D03*
X76200000Y-86360000D03*
X78740000Y-86360000D03*
X81280000Y-86360000D03*
X83820000Y-86360000D03*
X86360000Y-86360000D03*
X88900000Y-86360000D03*
X89110000Y-88900000D03*
X89110000Y-91440000D03*
X89110000Y-93980000D03*
X89110000Y-96520000D03*
X89110000Y-99060000D03*
X88900000Y-101600000D03*
X86360000Y-101600000D03*
X83820000Y-101600000D03*
X81280000Y-101600000D03*
X78740000Y-101600000D03*
X76200000Y-101600000D03*
X73660000Y-101600000D03*
X68580000Y-101600000D03*
X71120000Y-101600000D03*
G04 #@! TD*
D14*
G04 #@! TO.C,SW4*
X154940000Y-93980000D03*
D13*
X160020000Y-93980000D03*
D14*
X165100000Y-93980000D03*
D15*
X163830000Y-91440000D03*
D16*
X167380000Y-91440000D03*
X153930000Y-88900000D03*
D15*
X157480000Y-88900000D03*
G04 #@! TD*
D14*
G04 #@! TO.C,SW2*
X127000000Y-93980000D03*
X116840000Y-93980000D03*
D13*
X121920000Y-93980000D03*
D16*
X129280000Y-91440000D03*
D15*
X125730000Y-91440000D03*
D16*
X115830000Y-88900000D03*
D15*
X119380000Y-88900000D03*
G04 #@! TD*
D14*
G04 #@! TO.C,SW3*
X135890000Y-93980000D03*
D13*
X140970000Y-93980000D03*
D14*
X146050000Y-93980000D03*
D16*
X148330000Y-91440000D03*
D15*
X144780000Y-91440000D03*
D16*
X134880000Y-88900000D03*
D15*
X138430000Y-88900000D03*
G04 #@! TD*
D12*
G04 #@! TO.C,D1*
X96520000Y-100710000D03*
X96520000Y-97410000D03*
G04 #@! TD*
M02*
