M48
; DRILL file {KiCad (6.0.6)} date Wed Sep 21 14:48:02 2022
; FORMAT={-:-/ absolute / metric / decimal}
; #@! TF.CreationDate,2022-09-21T14:48:02+10:00
; #@! TF.GenerationSoftware,Kicad,Pcbnew,(6.0.6)
; #@! TF.FileFunction,Plated,1,2,PTH
FMAT,2
METRIC
; #@! TA.AperFunction,Plated,PTH,ViaDrill
T1C0.400
; #@! TA.AperFunction,Plated,PTH,ComponentDrill
T2C0.762
; #@! TA.AperFunction,Plated,PTH,ComponentDrill
T3C0.800
; #@! TA.AperFunction,Plated,PTH,ComponentDrill
T4C3.000
%
G90
G05
T1
X91.44Y-96.52
X146.05Y-99.06
T2
X68.544Y-102.421
X71.084Y-102.421
X73.624Y-102.447
X76.164Y-102.447
X78.73Y-85.378
X78.73Y-102.396
X81.244Y-85.403
X81.244Y-102.421
X83.784Y-85.403
X83.784Y-102.421
X86.324Y-85.429
X86.324Y-102.447
X88.864Y-85.429
X88.864Y-102.447
X89.779Y-88.883
X89.779Y-91.423
X89.779Y-96.503
X89.804Y-93.963
X89.804Y-99.043
T3
X68.58Y-86.36
X68.58Y-101.6
X71.12Y-86.36
X71.12Y-101.6
X73.66Y-86.36
X73.66Y-101.6
X76.2Y-86.36
X76.2Y-101.6
X78.74Y-86.36
X78.74Y-101.6
X81.28Y-86.36
X81.28Y-101.6
X83.82Y-86.36
X83.82Y-101.6
X86.36Y-86.36
X86.36Y-101.6
X88.9Y-86.36
X88.9Y-101.6
X89.11Y-88.9
X89.11Y-91.44
X89.11Y-93.98
X89.11Y-96.52
X89.11Y-99.06
T4
X100.33Y-88.9
X106.68Y-91.44
X119.38Y-88.9
X125.73Y-91.44
X138.43Y-88.9
X144.78Y-91.44
X157.48Y-88.9
X163.83Y-91.44
X176.53Y-88.9
X182.88Y-91.44
X195.58Y-88.9
X201.93Y-91.44
T2
X68.544Y-85.403G85X68.544Y-85.403
G05
X71.084Y-85.403G85X71.084Y-85.403
G05
X73.624Y-85.429G85X73.624Y-85.429
G05
X76.164Y-85.429G85X76.164Y-85.429
G05
T0
M30
