G04 #@! TF.GenerationSoftware,KiCad,Pcbnew,(6.0.6)*
G04 #@! TF.CreationDate,2022-09-21T14:47:18+10:00*
G04 #@! TF.ProjectId,freshboard,66726573-6862-46f6-9172-642e6b696361,rev?*
G04 #@! TF.SameCoordinates,Original*
G04 #@! TF.FileFunction,Copper,L1,Top*
G04 #@! TF.FilePolarity,Positive*
%FSLAX46Y46*%
G04 Gerber Fmt 4.6, Leading zero omitted, Abs format (unit mm)*
G04 Created by KiCad (PCBNEW (6.0.6)) date 2022-09-21 14:47:18*
%MOMM*%
%LPD*%
G01*
G04 APERTURE LIST*
G04 Aperture macros list*
%AMRoundRect*
0 Rectangle with rounded corners*
0 $1 Rounding radius*
0 $2 $3 $4 $5 $6 $7 $8 $9 X,Y pos of 4 corners*
0 Add a 4 corners polygon primitive as box body*
4,1,4,$2,$3,$4,$5,$6,$7,$8,$9,$2,$3,0*
0 Add four circle primitives for the rounded corners*
1,1,$1+$1,$2,$3*
1,1,$1+$1,$4,$5*
1,1,$1+$1,$6,$7*
1,1,$1+$1,$8,$9*
0 Add four rect primitives between the rounded corners*
20,1,$1+$1,$2,$3,$4,$5,0*
20,1,$1+$1,$4,$5,$6,$7,0*
20,1,$1+$1,$6,$7,$8,$9,0*
20,1,$1+$1,$8,$9,$2,$3,0*%
G04 Aperture macros list end*
G04 #@! TA.AperFunction,SMDPad,CuDef*
%ADD10R,1.200000X0.900000*%
G04 #@! TD*
G04 #@! TA.AperFunction,SMDPad,CuDef*
%ADD11R,1.650000X2.500000*%
G04 #@! TD*
G04 #@! TA.AperFunction,ComponentPad*
%ADD12C,3.300000*%
G04 #@! TD*
G04 #@! TA.AperFunction,SMDPad,CuDef*
%ADD13RoundRect,0.250000X-1.025000X-1.000000X1.025000X-1.000000X1.025000X1.000000X-1.025000X1.000000X0*%
G04 #@! TD*
G04 #@! TA.AperFunction,CastellatedPad*
%ADD14R,1.600200X1.574800*%
G04 #@! TD*
G04 #@! TA.AperFunction,ComponentPad*
%ADD15C,1.600000*%
G04 #@! TD*
G04 #@! TA.AperFunction,ViaPad*
%ADD16C,0.800000*%
G04 #@! TD*
G04 #@! TA.AperFunction,Conductor*
%ADD17C,0.250000*%
G04 #@! TD*
G04 APERTURE END LIST*
D10*
G04 #@! TO.P,D2,1,K*
G04 #@! TO.N,row0*
X115570000Y-100710000D03*
G04 #@! TO.P,D2,2,A*
G04 #@! TO.N,Net-(SW2-Pad2)*
X115570000Y-97410000D03*
G04 #@! TD*
D11*
G04 #@! TO.P,SW6,1,1*
G04 #@! TO.N,col5*
X203755000Y-91440000D03*
D12*
X201930000Y-91440000D03*
D13*
X205480000Y-91440000D03*
D11*
G04 #@! TO.P,SW6,2,2*
G04 #@! TO.N,Net-(SW6-Pad2)*
X193780000Y-88900000D03*
D13*
X192030000Y-88900000D03*
D12*
X195580000Y-88900000D03*
G04 #@! TD*
D13*
G04 #@! TO.P,SW5,1,1*
G04 #@! TO.N,col4*
X186430000Y-91440000D03*
D12*
X182880000Y-91440000D03*
D11*
X184705000Y-91440000D03*
D12*
G04 #@! TO.P,SW5,2,2*
G04 #@! TO.N,Net-(SW5-Pad2)*
X176530000Y-88900000D03*
D11*
X174730000Y-88900000D03*
D13*
X172980000Y-88900000D03*
G04 #@! TD*
D10*
G04 #@! TO.P,D3,1,K*
G04 #@! TO.N,row0*
X134620000Y-100710000D03*
G04 #@! TO.P,D3,2,A*
G04 #@! TO.N,Net-(SW3-Pad2)*
X134620000Y-97410000D03*
G04 #@! TD*
G04 #@! TO.P,D6,1,K*
G04 #@! TO.N,row0*
X191770000Y-100710000D03*
G04 #@! TO.P,D6,2,A*
G04 #@! TO.N,Net-(SW6-Pad2)*
X191770000Y-97410000D03*
G04 #@! TD*
G04 #@! TO.P,D5,1,K*
G04 #@! TO.N,row0*
X172720000Y-100710000D03*
G04 #@! TO.P,D5,2,A*
G04 #@! TO.N,Net-(SW5-Pad2)*
X172720000Y-97410000D03*
G04 #@! TD*
G04 #@! TO.P,D4,1,K*
G04 #@! TO.N,row0*
X153670000Y-100710000D03*
G04 #@! TO.P,D4,2,A*
G04 #@! TO.N,Net-(SW4-Pad2)*
X153670000Y-97410000D03*
G04 #@! TD*
D13*
G04 #@! TO.P,SW1,1,1*
G04 #@! TO.N,col0*
X110230000Y-91440000D03*
D12*
X106680000Y-91440000D03*
D11*
X108505000Y-91440000D03*
G04 #@! TO.P,SW1,2,2*
G04 #@! TO.N,Net-(SW1-Pad2)*
X98530000Y-88900000D03*
D13*
X96780000Y-88900000D03*
D12*
X100330000Y-88900000D03*
G04 #@! TD*
D14*
G04 #@! TO.P,RZ1,*
G04 #@! TO.N,*
X86362500Y-102472000D03*
X68582500Y-102446600D03*
X71122500Y-102446600D03*
X83822500Y-102446600D03*
X89816900Y-88908400D03*
X89842300Y-99068400D03*
X86362500Y-85454000D03*
X81282500Y-102446600D03*
X78729800Y-85377800D03*
X68582500Y-85428600D03*
X89816900Y-91448400D03*
X88902500Y-102472000D03*
X88902500Y-85454000D03*
X83822500Y-85428600D03*
X81282500Y-85428600D03*
X71122500Y-85428600D03*
X73662500Y-102472000D03*
X89816900Y-96528400D03*
X89842300Y-93988400D03*
X73662500Y-85454000D03*
X76202500Y-102472000D03*
X76202500Y-85454000D03*
X78729800Y-102395800D03*
D15*
G04 #@! TO.P,RZ1,1,GP0*
G04 #@! TO.N,unconnected-(RZ1-Pad1)*
X68580000Y-86360000D03*
G04 #@! TO.P,RZ1,2,GP1*
G04 #@! TO.N,unconnected-(RZ1-Pad2)*
X71120000Y-86360000D03*
G04 #@! TO.P,RZ1,3,GP2*
G04 #@! TO.N,unconnected-(RZ1-Pad3)*
X73660000Y-86360000D03*
G04 #@! TO.P,RZ1,4,GP3*
G04 #@! TO.N,unconnected-(RZ1-Pad4)*
X76200000Y-86360000D03*
G04 #@! TO.P,RZ1,5,GP4*
G04 #@! TO.N,unconnected-(RZ1-Pad5)*
X78740000Y-86360000D03*
G04 #@! TO.P,RZ1,6,GP5*
G04 #@! TO.N,unconnected-(RZ1-Pad6)*
X81280000Y-86360000D03*
G04 #@! TO.P,RZ1,7,GP6*
G04 #@! TO.N,unconnected-(RZ1-Pad7)*
X83820000Y-86360000D03*
G04 #@! TO.P,RZ1,8,GP7*
G04 #@! TO.N,unconnected-(RZ1-Pad8)*
X86360000Y-86360000D03*
G04 #@! TO.P,RZ1,9,GP8*
G04 #@! TO.N,unconnected-(RZ1-Pad9)*
X88900000Y-86360000D03*
G04 #@! TO.P,RZ1,10,GP9*
G04 #@! TO.N,unconnected-(RZ1-Pad10)*
X89110000Y-88900000D03*
G04 #@! TO.P,RZ1,11,GP10*
G04 #@! TO.N,col5*
X89110000Y-91440000D03*
G04 #@! TO.P,RZ1,12,GP11*
G04 #@! TO.N,col4*
X89110000Y-93980000D03*
G04 #@! TO.P,RZ1,13,GP12*
G04 #@! TO.N,col3*
X89110000Y-96520000D03*
G04 #@! TO.P,RZ1,14,GP13*
G04 #@! TO.N,col2*
X89110000Y-99060000D03*
G04 #@! TO.P,RZ1,15,GP14*
G04 #@! TO.N,col1*
X88900000Y-101600000D03*
G04 #@! TO.P,RZ1,16,GP15*
G04 #@! TO.N,col0*
X86360000Y-101600000D03*
G04 #@! TO.P,RZ1,17,GP26*
G04 #@! TO.N,row0*
X83820000Y-101600000D03*
G04 #@! TO.P,RZ1,18,GP27*
G04 #@! TO.N,unconnected-(RZ1-Pad18)*
X81280000Y-101600000D03*
G04 #@! TO.P,RZ1,19,GP28*
G04 #@! TO.N,unconnected-(RZ1-Pad19)*
X78740000Y-101600000D03*
G04 #@! TO.P,RZ1,20,GP29*
G04 #@! TO.N,unconnected-(RZ1-Pad20)*
X76200000Y-101600000D03*
G04 #@! TO.P,RZ1,21,3V3*
G04 #@! TO.N,unconnected-(RZ1-Pad21)*
X73660000Y-101600000D03*
G04 #@! TO.P,RZ1,22,5V*
G04 #@! TO.N,unconnected-(RZ1-Pad22)*
X68580000Y-101600000D03*
G04 #@! TO.P,RZ1,23,GND*
G04 #@! TO.N,GND*
X71120000Y-101600000D03*
G04 #@! TD*
D12*
G04 #@! TO.P,SW4,1,1*
G04 #@! TO.N,col3*
X163830000Y-91440000D03*
D13*
X167380000Y-91440000D03*
D11*
X165655000Y-91440000D03*
G04 #@! TO.P,SW4,2,2*
G04 #@! TO.N,Net-(SW4-Pad2)*
X155680000Y-88900000D03*
D13*
X153930000Y-88900000D03*
D12*
X157480000Y-88900000D03*
G04 #@! TD*
D13*
G04 #@! TO.P,SW2,1,1*
G04 #@! TO.N,col1*
X129280000Y-91440000D03*
D12*
X125730000Y-91440000D03*
D11*
X127555000Y-91440000D03*
G04 #@! TO.P,SW2,2,2*
G04 #@! TO.N,Net-(SW2-Pad2)*
X117580000Y-88900000D03*
D13*
X115830000Y-88900000D03*
D12*
X119380000Y-88900000D03*
G04 #@! TD*
D13*
G04 #@! TO.P,SW3,1,1*
G04 #@! TO.N,col2*
X148330000Y-91440000D03*
D12*
X144780000Y-91440000D03*
D11*
X146605000Y-91440000D03*
D13*
G04 #@! TO.P,SW3,2,2*
G04 #@! TO.N,Net-(SW3-Pad2)*
X134880000Y-88900000D03*
D11*
X136630000Y-88900000D03*
D12*
X138430000Y-88900000D03*
G04 #@! TD*
D10*
G04 #@! TO.P,D1,1,K*
G04 #@! TO.N,row0*
X96520000Y-100710000D03*
G04 #@! TO.P,D1,2,A*
G04 #@! TO.N,Net-(SW1-Pad2)*
X96520000Y-97410000D03*
G04 #@! TD*
D16*
G04 #@! TO.N,col2*
X146050000Y-99060000D03*
X91440000Y-96520000D03*
G04 #@! TD*
D17*
G04 #@! TO.N,row0*
X85090000Y-101577292D02*
X85090000Y-103612525D01*
X84846907Y-101334200D02*
X83820000Y-101334200D01*
X85979961Y-103929987D02*
X86064974Y-103844975D01*
X94805000Y-104140000D02*
X86777224Y-104140000D01*
X85492474Y-104015000D02*
X85774723Y-104015000D01*
X96520000Y-100710000D02*
X191770000Y-100710000D01*
X96520000Y-100710000D02*
X96520000Y-102425000D01*
X86777224Y-104139974D02*
G75*
G02*
X86064974Y-103844975I-24J1007274D01*
G01*
X85090000Y-103612525D02*
G75*
G03*
X85492474Y-104015000I402500J25D01*
G01*
X96520000Y-102425000D02*
G75*
G02*
X94805000Y-104140000I-1715000J0D01*
G01*
X85774723Y-104015001D02*
G75*
G03*
X85979961Y-103929987I-23J290301D01*
G01*
X84846907Y-101334197D02*
G75*
G02*
X85018800Y-101405400I-7J-243103D01*
G01*
X85090003Y-101577292D02*
G75*
G03*
X85018800Y-101405400I-243103J-8D01*
G01*
G04 #@! TO.N,Net-(SW1-Pad2)*
X96520000Y-89343847D02*
X96520000Y-97410000D01*
X96650000Y-89030000D02*
X96780000Y-88900000D01*
X96520020Y-89343847D02*
G75*
G02*
X96650000Y-89030000I443780J47D01*
G01*
G04 #@! TO.N,Net-(SW2-Pad2)*
X115700000Y-89030000D02*
X115830000Y-88900000D01*
X115570000Y-89343847D02*
X115570000Y-97410000D01*
X115570020Y-89343847D02*
G75*
G02*
X115700000Y-89030000I443780J47D01*
G01*
G04 #@! TO.N,Net-(SW3-Pad2)*
X134750000Y-89030000D02*
X134880000Y-88900000D01*
X134620000Y-89343847D02*
X134620000Y-97410000D01*
X134749986Y-89029986D02*
G75*
G03*
X134620000Y-89343847I313814J-313814D01*
G01*
G04 #@! TO.N,Net-(SW4-Pad2)*
X153800000Y-89030000D02*
X153930000Y-88900000D01*
X153670000Y-89343847D02*
X153670000Y-97410000D01*
X153799986Y-89029986D02*
G75*
G03*
X153670000Y-89343847I313814J-313814D01*
G01*
G04 #@! TO.N,Net-(SW5-Pad2)*
X172720000Y-89343847D02*
X172720000Y-97410000D01*
X172850000Y-89030000D02*
X172980000Y-88900000D01*
X172720020Y-89343847D02*
G75*
G02*
X172850000Y-89030000I443780J47D01*
G01*
G04 #@! TO.N,Net-(SW6-Pad2)*
X191770000Y-89343847D02*
X191770000Y-97410000D01*
X191900000Y-89030000D02*
X192030000Y-88900000D01*
X191770020Y-89343847D02*
G75*
G02*
X191900000Y-89030000I443780J47D01*
G01*
G04 #@! TO.N,col5*
X90805000Y-90170000D02*
X88975179Y-90170000D01*
X94720000Y-85090000D02*
X203740001Y-85090000D01*
X205610000Y-91310000D02*
X205480000Y-91440000D01*
X93172495Y-87167504D02*
X91889012Y-88450987D01*
X88691800Y-90453379D02*
X88691800Y-91440000D01*
X205740000Y-87089998D02*
X205740000Y-90996152D01*
X93351740Y-87093259D02*
X93456740Y-87093259D01*
X93980000Y-85830000D02*
G75*
G02*
X94720000Y-85090000I740000J0D01*
G01*
X88691792Y-90453379D02*
G75*
G02*
X88774800Y-90253000I283408J-21D01*
G01*
X205740000Y-87089998D02*
G75*
G03*
X203740001Y-85090000I-2000000J-2D01*
G01*
X93172486Y-87167495D02*
G75*
G02*
X93351740Y-87093259I179214J-179205D01*
G01*
X88774806Y-90253006D02*
G75*
G02*
X88975179Y-90170000I200394J-200394D01*
G01*
X91439992Y-89535000D02*
G75*
G02*
X91889012Y-88450987I1533008J0D01*
G01*
X93456737Y-87093256D02*
G75*
G03*
X93980000Y-85830000I-1263237J1263256D01*
G01*
X205739950Y-90996152D02*
G75*
G02*
X205609999Y-91309999I-443850J-48D01*
G01*
X90805000Y-90170000D02*
G75*
G03*
X91440000Y-89535000I0J635000D01*
G01*
G04 #@! TO.N,col4*
X90488198Y-92710000D02*
X89000579Y-92710000D01*
X186430000Y-86495979D02*
X186430000Y-91440000D01*
X93119999Y-88489999D02*
X92299999Y-89309999D01*
X92299999Y-89309999D02*
X92114999Y-89495000D01*
X185474020Y-85540000D02*
X95061629Y-85540000D01*
X88717200Y-92993379D02*
X88717200Y-93980000D01*
X91440000Y-91758198D02*
X91440000Y-91124594D01*
X94430000Y-86171629D02*
X94430000Y-86545000D01*
X93980987Y-87629012D02*
X93119999Y-88489999D01*
X94430006Y-86545000D02*
G75*
G02*
X93980986Y-87629011I-1533006J0D01*
G01*
X91665002Y-90581397D02*
G75*
G03*
X91890000Y-90038198I-543202J543197D01*
G01*
X186149994Y-85820006D02*
G75*
G03*
X185474020Y-85540000I-675994J-675994D01*
G01*
X94614991Y-85724991D02*
G75*
G02*
X95061629Y-85540000I446609J-446609D01*
G01*
X91889999Y-90038198D02*
G75*
G02*
X92114999Y-89495000I768201J-2D01*
G01*
X94614991Y-85724991D02*
G75*
G03*
X94430000Y-86171629I446609J-446609D01*
G01*
X186149994Y-85820006D02*
G75*
G02*
X186430000Y-86495979I-675994J-675994D01*
G01*
X91439996Y-91124594D02*
G75*
G02*
X91665000Y-90581395I768204J-6D01*
G01*
X88800206Y-92793006D02*
G75*
G02*
X89000579Y-92710000I200394J-200394D01*
G01*
X90488198Y-92710000D02*
G75*
G03*
X91440000Y-91758198I2J951800D01*
G01*
X88717192Y-92993379D02*
G75*
G02*
X88800200Y-92793000I283408J-21D01*
G01*
G04 #@! TO.N,col3*
X88691800Y-95533379D02*
X88691800Y-96520000D01*
X167640000Y-90996152D02*
X167640000Y-88528025D01*
X167510000Y-91310000D02*
X167380000Y-91440000D01*
X91387875Y-95250000D02*
X88975179Y-95250000D01*
X165471974Y-86360000D02*
X98132447Y-86360000D01*
X94298197Y-87948197D02*
X93906284Y-88340111D01*
X91513715Y-95124160D02*
X91513715Y-94116284D01*
X98132447Y-86360019D02*
G75*
G03*
X94298198Y-87948198I-47J-5422381D01*
G01*
X167510035Y-91310035D02*
G75*
G03*
X167640000Y-90996152I-313935J313835D01*
G01*
X91387875Y-95249964D02*
G75*
G03*
X91476857Y-95213142I25J125864D01*
G01*
X92710007Y-91228198D02*
G75*
G02*
X93906285Y-88340112I4084393J-2D01*
G01*
X167639989Y-88528025D02*
G75*
G03*
X167005000Y-86995000I-2167989J25D01*
G01*
X165471974Y-86360011D02*
G75*
G02*
X167005000Y-86995000I26J-2167989D01*
G01*
X88691792Y-95533379D02*
G75*
G02*
X88774800Y-95333000I283408J-21D01*
G01*
X88774806Y-95333006D02*
G75*
G02*
X88975179Y-95250000I200394J-200394D01*
G01*
X92709989Y-91228198D02*
G75*
G02*
X91513715Y-94116284I-4084389J-2D01*
G01*
X91476872Y-95213157D02*
G75*
G03*
X91513715Y-95124160I-88972J88957D01*
G01*
G04 #@! TO.N,col2*
X91440000Y-96520000D02*
X91440000Y-96625000D01*
X148330000Y-95167796D02*
X148330000Y-91440000D01*
X90967400Y-97474300D02*
X90967400Y-97326778D01*
X91440000Y-96520000D02*
X91203700Y-96756300D01*
X90485700Y-97956000D02*
X89269200Y-97956000D01*
X147190000Y-97920000D02*
X146050000Y-99060000D01*
X88717200Y-98508000D02*
X88717200Y-99060000D01*
X90967392Y-97326778D02*
G75*
G02*
X91203701Y-96756301I806808J-22D01*
G01*
X90485700Y-97956000D02*
G75*
G03*
X90967400Y-97474300I0J481700D01*
G01*
X88717200Y-98508000D02*
G75*
G02*
X89269200Y-97956000I552000J0D01*
G01*
X91365755Y-96804248D02*
G75*
G03*
X91440000Y-96625000I-179255J179248D01*
G01*
X147190001Y-97920001D02*
G75*
G03*
X148330000Y-95167796I-2752201J2752201D01*
G01*
G04 #@! TO.N,col1*
X129280000Y-93429257D02*
X129280000Y-91440000D01*
X113030000Y-91068025D02*
X113030000Y-97060001D01*
X90486802Y-101600000D02*
X88900000Y-101600000D01*
X123561974Y-99060000D02*
X115029998Y-99060000D01*
X106393963Y-88900000D02*
X110861974Y-88900000D01*
X96836802Y-98610000D02*
X98291801Y-98610000D01*
X127077511Y-97438024D02*
X128002768Y-96512768D01*
X101923792Y-91116206D02*
X102546207Y-90493792D01*
X93195642Y-100477961D02*
X93809763Y-99863839D01*
X99695000Y-98425000D02*
X99285000Y-98835000D01*
X125095000Y-98425000D02*
X125378024Y-98141975D01*
X100330000Y-94963963D02*
X100330000Y-96891974D01*
X93809759Y-99863835D02*
G75*
G02*
X96836802Y-98610000I3027041J-3027065D01*
G01*
X125095008Y-98425008D02*
G75*
G02*
X123561974Y-99060000I-1533008J1533008D01*
G01*
X128002781Y-96512781D02*
G75*
G03*
X129280000Y-93429257I-3083481J3083481D01*
G01*
X98291801Y-98610000D02*
G75*
G02*
X98834999Y-98835001I-1J-768200D01*
G01*
X125378044Y-98141995D02*
G75*
G02*
X126227768Y-97790000I849756J-849705D01*
G01*
X106393963Y-88899960D02*
G75*
G03*
X102546208Y-90493793I37J-5441540D01*
G01*
X99695008Y-98425008D02*
G75*
G03*
X100330000Y-96891974I-1533008J1533008D01*
G01*
X90486802Y-101599994D02*
G75*
G03*
X93195642Y-100477961I-2J3830894D01*
G01*
X110861974Y-88900011D02*
G75*
G02*
X112395000Y-89535000I26J-2167989D01*
G01*
X115029998Y-99060000D02*
G75*
G02*
X113030000Y-97060001I2J2000000D01*
G01*
X101923801Y-91116215D02*
G75*
G03*
X100330000Y-94963963I3847799J-3847785D01*
G01*
X127077524Y-97438037D02*
G75*
G02*
X126227768Y-97790000I-849724J849737D01*
G01*
X99285000Y-98835000D02*
G75*
G02*
X98835000Y-98835000I-225000J225000D01*
G01*
X113029989Y-91068025D02*
G75*
G03*
X112395000Y-89535000I-2167989J25D01*
G01*
G04 #@! TO.N,col0*
X101886036Y-100260000D02*
X98568528Y-100260000D01*
X105733792Y-98666207D02*
X109264799Y-95135200D01*
X87405000Y-102645000D02*
X86360000Y-101600000D01*
X96969012Y-99509012D02*
X97120000Y-99660000D01*
X87730692Y-103690000D02*
X91030000Y-103690000D01*
X110230000Y-92805000D02*
X110230000Y-91440000D01*
X87487600Y-103446907D02*
X87487600Y-102645000D01*
X91729913Y-102580086D02*
X94800987Y-99509012D01*
X87558802Y-103618798D02*
G75*
G03*
X87730692Y-103690000I171898J171898D01*
G01*
X87558802Y-103618798D02*
G75*
G02*
X87487600Y-103446907I171898J171898D01*
G01*
X95885000Y-99059993D02*
G75*
G02*
X96969012Y-99509012I0J-1533007D01*
G01*
X95885000Y-99059992D02*
G75*
G03*
X94800987Y-99509012I0J-1533008D01*
G01*
X91439992Y-103280000D02*
G75*
G02*
X91729914Y-102580087I989808J0D01*
G01*
X109264799Y-95135200D02*
G75*
G03*
X110230000Y-92805000I-2330199J2330200D01*
G01*
X97119992Y-99660008D02*
G75*
G03*
X98568528Y-100260000I1448508J1448508D01*
G01*
X105733785Y-98666200D02*
G75*
G02*
X101886036Y-100260000I-3847785J3847800D01*
G01*
X91440000Y-103280000D02*
G75*
G02*
X91030000Y-103690000I-410000J0D01*
G01*
G04 #@! TD*
M02*
