G04 #@! TF.GenerationSoftware,KiCad,Pcbnew,(6.0.6)*
G04 #@! TF.CreationDate,2022-09-21T14:47:18+10:00*
G04 #@! TF.ProjectId,freshboard,66726573-6862-46f6-9172-642e6b696361,rev?*
G04 #@! TF.SameCoordinates,Original*
G04 #@! TF.FileFunction,Soldermask,Top*
G04 #@! TF.FilePolarity,Negative*
%FSLAX46Y46*%
G04 Gerber Fmt 4.6, Leading zero omitted, Abs format (unit mm)*
G04 Created by KiCad (PCBNEW (6.0.6)) date 2022-09-21 14:47:18*
%MOMM*%
%LPD*%
G01*
G04 APERTURE LIST*
G04 Aperture macros list*
%AMRoundRect*
0 Rectangle with rounded corners*
0 $1 Rounding radius*
0 $2 $3 $4 $5 $6 $7 $8 $9 X,Y pos of 4 corners*
0 Add a 4 corners polygon primitive as box body*
4,1,4,$2,$3,$4,$5,$6,$7,$8,$9,$2,$3,0*
0 Add four circle primitives for the rounded corners*
1,1,$1+$1,$2,$3*
1,1,$1+$1,$4,$5*
1,1,$1+$1,$6,$7*
1,1,$1+$1,$8,$9*
0 Add four rect primitives between the rounded corners*
20,1,$1+$1,$2,$3,$4,$5,0*
20,1,$1+$1,$4,$5,$6,$7,0*
20,1,$1+$1,$6,$7,$8,$9,0*
20,1,$1+$1,$8,$9,$2,$3,0*%
G04 Aperture macros list end*
%ADD10R,1.200000X0.900000*%
%ADD11C,3.987800*%
%ADD12C,1.750000*%
%ADD13C,3.300000*%
%ADD14RoundRect,0.250000X-1.025000X-1.000000X1.025000X-1.000000X1.025000X1.000000X-1.025000X1.000000X0*%
%ADD15R,1.600200X1.574800*%
%ADD16C,1.600000*%
G04 APERTURE END LIST*
D10*
G04 #@! TO.C,D2*
X115570000Y-100710000D03*
X115570000Y-97410000D03*
G04 #@! TD*
D11*
G04 #@! TO.C,SW6*
X198120000Y-93980000D03*
D12*
X203200000Y-93980000D03*
X193040000Y-93980000D03*
D13*
X201930000Y-91440000D03*
D14*
X205480000Y-91440000D03*
X192030000Y-88900000D03*
D13*
X195580000Y-88900000D03*
G04 #@! TD*
D11*
G04 #@! TO.C,SW5*
X179070000Y-93980000D03*
D12*
X184150000Y-93980000D03*
X173990000Y-93980000D03*
D14*
X186430000Y-91440000D03*
D13*
X182880000Y-91440000D03*
X176530000Y-88900000D03*
D14*
X172980000Y-88900000D03*
G04 #@! TD*
D10*
G04 #@! TO.C,D3*
X134620000Y-100710000D03*
X134620000Y-97410000D03*
G04 #@! TD*
G04 #@! TO.C,D6*
X191770000Y-100710000D03*
X191770000Y-97410000D03*
G04 #@! TD*
G04 #@! TO.C,D5*
X172720000Y-100710000D03*
X172720000Y-97410000D03*
G04 #@! TD*
G04 #@! TO.C,D4*
X153670000Y-100710000D03*
X153670000Y-97410000D03*
G04 #@! TD*
D12*
G04 #@! TO.C,SW1*
X107950000Y-93980000D03*
D11*
X102870000Y-93980000D03*
D12*
X97790000Y-93980000D03*
D14*
X110230000Y-91440000D03*
D13*
X106680000Y-91440000D03*
D14*
X96780000Y-88900000D03*
D13*
X100330000Y-88900000D03*
G04 #@! TD*
D15*
G04 #@! TO.C,RZ1*
X86362500Y-102472000D03*
X68582500Y-102446600D03*
X71122500Y-102446600D03*
X83822500Y-102446600D03*
X89816900Y-88908400D03*
X89842300Y-99068400D03*
X86362500Y-85454000D03*
X81282500Y-102446600D03*
X78729800Y-85377800D03*
X68582500Y-85428600D03*
X89816900Y-91448400D03*
X88902500Y-102472000D03*
X88902500Y-85454000D03*
X83822500Y-85428600D03*
X81282500Y-85428600D03*
X71122500Y-85428600D03*
X73662500Y-102472000D03*
X89816900Y-96528400D03*
X89842300Y-93988400D03*
X73662500Y-85454000D03*
X76202500Y-102472000D03*
X76202500Y-85454000D03*
X78729800Y-102395800D03*
D16*
X68580000Y-86360000D03*
X71120000Y-86360000D03*
X73660000Y-86360000D03*
X76200000Y-86360000D03*
X78740000Y-86360000D03*
X81280000Y-86360000D03*
X83820000Y-86360000D03*
X86360000Y-86360000D03*
X88900000Y-86360000D03*
X89110000Y-88900000D03*
X89110000Y-91440000D03*
X89110000Y-93980000D03*
X89110000Y-96520000D03*
X89110000Y-99060000D03*
X88900000Y-101600000D03*
X86360000Y-101600000D03*
X83820000Y-101600000D03*
X81280000Y-101600000D03*
X78740000Y-101600000D03*
X76200000Y-101600000D03*
X73660000Y-101600000D03*
X68580000Y-101600000D03*
X71120000Y-101600000D03*
G04 #@! TD*
D12*
G04 #@! TO.C,SW4*
X154940000Y-93980000D03*
D11*
X160020000Y-93980000D03*
D12*
X165100000Y-93980000D03*
D13*
X163830000Y-91440000D03*
D14*
X167380000Y-91440000D03*
X153930000Y-88900000D03*
D13*
X157480000Y-88900000D03*
G04 #@! TD*
D12*
G04 #@! TO.C,SW2*
X127000000Y-93980000D03*
X116840000Y-93980000D03*
D11*
X121920000Y-93980000D03*
D14*
X129280000Y-91440000D03*
D13*
X125730000Y-91440000D03*
D14*
X115830000Y-88900000D03*
D13*
X119380000Y-88900000D03*
G04 #@! TD*
D12*
G04 #@! TO.C,SW3*
X135890000Y-93980000D03*
D11*
X140970000Y-93980000D03*
D12*
X146050000Y-93980000D03*
D14*
X148330000Y-91440000D03*
D13*
X144780000Y-91440000D03*
D14*
X134880000Y-88900000D03*
D13*
X138430000Y-88900000D03*
G04 #@! TD*
D10*
G04 #@! TO.C,D1*
X96520000Y-100710000D03*
X96520000Y-97410000D03*
G04 #@! TD*
M02*
