G04 #@! TF.GenerationSoftware,KiCad,Pcbnew,(6.0.6)*
G04 #@! TF.CreationDate,2022-09-21T14:47:18+10:00*
G04 #@! TF.ProjectId,freshboard,66726573-6862-46f6-9172-642e6b696361,rev?*
G04 #@! TF.SameCoordinates,Original*
G04 #@! TF.FileFunction,Legend,Bot*
G04 #@! TF.FilePolarity,Positive*
%FSLAX46Y46*%
G04 Gerber Fmt 4.6, Leading zero omitted, Abs format (unit mm)*
G04 Created by KiCad (PCBNEW (6.0.6)) date 2022-09-21 14:47:18*
%MOMM*%
%LPD*%
G01*
G04 APERTURE LIST*
%ADD10C,3.987800*%
%ADD11C,1.750000*%
%ADD12C,3.300000*%
%ADD13R,1.600200X1.574800*%
%ADD14C,1.600000*%
G04 APERTURE END LIST*
%LPC*%
D10*
G04 #@! TO.C,SW6*
X198120000Y-93980000D03*
D11*
X203200000Y-93980000D03*
X193040000Y-93980000D03*
D12*
X201930000Y-91440000D03*
X195580000Y-88900000D03*
G04 #@! TD*
D10*
G04 #@! TO.C,SW5*
X179070000Y-93980000D03*
D11*
X184150000Y-93980000D03*
X173990000Y-93980000D03*
D12*
X182880000Y-91440000D03*
X176530000Y-88900000D03*
G04 #@! TD*
D11*
G04 #@! TO.C,SW1*
X107950000Y-93980000D03*
D10*
X102870000Y-93980000D03*
D11*
X97790000Y-93980000D03*
D12*
X106680000Y-91440000D03*
X100330000Y-88900000D03*
G04 #@! TD*
D13*
G04 #@! TO.C,RZ1*
X86362500Y-102472000D03*
X68582500Y-102446600D03*
X71122500Y-102446600D03*
X83822500Y-102446600D03*
X89816900Y-88908400D03*
X89842300Y-99068400D03*
X86362500Y-85454000D03*
X81282500Y-102446600D03*
X78729800Y-85377800D03*
X68582500Y-85428600D03*
X89816900Y-91448400D03*
X88902500Y-102472000D03*
X88902500Y-85454000D03*
X83822500Y-85428600D03*
X81282500Y-85428600D03*
X71122500Y-85428600D03*
X73662500Y-102472000D03*
X89816900Y-96528400D03*
X89842300Y-93988400D03*
X73662500Y-85454000D03*
X76202500Y-102472000D03*
X76202500Y-85454000D03*
X78729800Y-102395800D03*
D14*
X68580000Y-86360000D03*
X71120000Y-86360000D03*
X73660000Y-86360000D03*
X76200000Y-86360000D03*
X78740000Y-86360000D03*
X81280000Y-86360000D03*
X83820000Y-86360000D03*
X86360000Y-86360000D03*
X88900000Y-86360000D03*
X89110000Y-88900000D03*
X89110000Y-91440000D03*
X89110000Y-93980000D03*
X89110000Y-96520000D03*
X89110000Y-99060000D03*
X88900000Y-101600000D03*
X86360000Y-101600000D03*
X83820000Y-101600000D03*
X81280000Y-101600000D03*
X78740000Y-101600000D03*
X76200000Y-101600000D03*
X73660000Y-101600000D03*
X68580000Y-101600000D03*
X71120000Y-101600000D03*
G04 #@! TD*
D11*
G04 #@! TO.C,SW4*
X154940000Y-93980000D03*
D10*
X160020000Y-93980000D03*
D11*
X165100000Y-93980000D03*
D12*
X163830000Y-91440000D03*
X157480000Y-88900000D03*
G04 #@! TD*
D11*
G04 #@! TO.C,SW2*
X127000000Y-93980000D03*
X116840000Y-93980000D03*
D10*
X121920000Y-93980000D03*
D12*
X125730000Y-91440000D03*
X119380000Y-88900000D03*
G04 #@! TD*
D11*
G04 #@! TO.C,SW3*
X135890000Y-93980000D03*
D10*
X140970000Y-93980000D03*
D11*
X146050000Y-93980000D03*
D12*
X144780000Y-91440000D03*
X138430000Y-88900000D03*
G04 #@! TD*
M02*
