%TF.GenerationSoftware,KiCad,Pcbnew,(6.0.6)*%
%TF.CreationDate,2022-10-04T12:54:13+11:00*%
%TF.ProjectId,freshboard,66726573-6862-46f6-9172-642e6b696361,rev?*%
%TF.SameCoordinates,Original*%
%TF.FileFunction,Soldermask,Bot*%
%TF.FilePolarity,Negative*%
%FSLAX46Y46*%
G04 Gerber Fmt 4.6, Leading zero omitted, Abs format (unit mm)*
G04 Created by KiCad (PCBNEW (6.0.6)) date 2022-10-04 12:54:13*
%MOMM*%
%LPD*%
G01*
G04 APERTURE LIST*
G04 Aperture macros list*
%AMRoundRect*
0 Rectangle with rounded corners*
0 $1 Rounding radius*
0 $2 $3 $4 $5 $6 $7 $8 $9 X,Y pos of 4 corners*
0 Add a 4 corners polygon primitive as box body*
4,1,4,$2,$3,$4,$5,$6,$7,$8,$9,$2,$3,0*
0 Add four circle primitives for the rounded corners*
1,1,$1+$1,$2,$3*
1,1,$1+$1,$4,$5*
1,1,$1+$1,$6,$7*
1,1,$1+$1,$8,$9*
0 Add four rect primitives between the rounded corners*
20,1,$1+$1,$2,$3,$4,$5,0*
20,1,$1+$1,$4,$5,$6,$7,0*
20,1,$1+$1,$6,$7,$8,$9,0*
20,1,$1+$1,$8,$9,$2,$3,0*%
G04 Aperture macros list end*
%ADD10C,3.987800*%
%ADD11C,1.750000*%
%ADD12C,3.300000*%
%ADD13RoundRect,0.400000X0.400000X-0.900000X0.400000X0.900000X-0.400000X0.900000X-0.400000X-0.900000X0*%
%ADD14RoundRect,0.400050X0.400050X-0.899950X0.400050X0.899950X-0.400050X0.899950X-0.400050X-0.899950X0*%
%ADD15RoundRect,0.400000X0.900000X-0.400000X0.900000X0.400000X-0.900000X0.400000X-0.900000X-0.400000X0*%
%ADD16RoundRect,0.393700X0.906300X-0.393700X0.906300X0.393700X-0.906300X0.393700X-0.906300X-0.393700X0*%
G04 APERTURE END LIST*
D10*
%TO.C,SW6*%
X198120000Y-93980000D03*
D11*
X203200000Y-93980000D03*
X193040000Y-93980000D03*
D12*
X201930000Y-91440000D03*
X195580000Y-88900000D03*
%TD*%
D11*
%TO.C,SW5*%
X184150000Y-93980000D03*
D10*
X179070000Y-93980000D03*
D11*
X173990000Y-93980000D03*
D12*
X182880000Y-91440000D03*
X176530000Y-88900000D03*
%TD*%
D11*
%TO.C,SW1*%
X107950000Y-93980000D03*
X97790000Y-93980000D03*
D10*
X102870000Y-93980000D03*
D12*
X106680000Y-91440000D03*
X100330000Y-88900000D03*
%TD*%
D13*
%TO.C,RZ1*%
X68505000Y-85760000D03*
X71045000Y-85760000D03*
X73585000Y-85760000D03*
X76125000Y-85760000D03*
X78665000Y-85760000D03*
D14*
X81205000Y-85760000D03*
X83745000Y-85760000D03*
X86285000Y-85760000D03*
X88825000Y-85760000D03*
D15*
X89635000Y-88900000D03*
D16*
X89635000Y-91440000D03*
X89635000Y-93980000D03*
X89635000Y-96520000D03*
X89635000Y-99060000D03*
D14*
X88825000Y-102200000D03*
X86285000Y-102200000D03*
X83745000Y-102200000D03*
X81205000Y-102200000D03*
X68505000Y-102200000D03*
X71045000Y-102200000D03*
X73585000Y-102200000D03*
X78665000Y-102200000D03*
X76125000Y-102200000D03*
%TD*%
D11*
%TO.C,SW4*%
X154940000Y-93980000D03*
D10*
X160020000Y-93980000D03*
D11*
X165100000Y-93980000D03*
D12*
X163830000Y-91440000D03*
X157480000Y-88900000D03*
%TD*%
D11*
%TO.C,SW2*%
X116840000Y-93980000D03*
X127000000Y-93980000D03*
D10*
X121920000Y-93980000D03*
D12*
X125730000Y-91440000D03*
X119380000Y-88900000D03*
%TD*%
D11*
%TO.C,SW3*%
X135890000Y-93980000D03*
D10*
X140970000Y-93980000D03*
D11*
X146050000Y-93980000D03*
D12*
X144780000Y-91440000D03*
X138430000Y-88900000D03*
%TD*%
M02*
